PathFileType	4	(X/Y/Z)	 s02c0202.trc
DataRate	CameraRate	NumFrames	NumMarkers	Units	OrigDataRate	OrigDataStartFrame	OrigNumFrames
200	200	4	50	mm	200	501	2000
Frame#	Time	racr			lacr			c7			jug			rlel			rdr			llel			ldr			s2			lic			ric			lasi			rasi			rpsi			lpsi			rgt			lgt			rth1			rth2			rth3			rth4			rlfc			rmfc			rsh1			rsh2			rsh3			rsh4			rlmal			rmmal			rtoe			rmt5			rmt1			lth1			lth2			lth4			lth3			llfc			lmfc			lsh1			lsh2			lsh3			lsh4			llmal			lmmal			lcal			ltoe			lmt5			SBIKE			LBIKE			RBIKE			
		X1	Y1	Z1	X2	Y2	Z2	X3	Y3	Z3	X4	Y4	Z4	X5	Y5	Z5	X6	Y6	Z6	X7	Y7	Z7	X8	Y8	Z8	X9	Y9	Z9	X10	Y10	Z10	X11	Y11	Z11	X12	Y12	Z12	X13	Y13	Z13	X14	Y14	Z14	X15	Y15	Z15	X16	Y16	Z16	X17	Y17	Z17	X18	Y18	Z18	X19	Y19	Z19	X20	Y20	Z20	X21	Y21	Z21	X22	Y22	Z22	X23	Y23	Z23	X24	Y24	Z24	X25	Y25	Z25	X26	Y26	Z26	X27	Y27	Z27	X28	Y28	Z28	X29	Y29	Z29	X30	Y30	Z30	X31	Y31	Z31	X32	Y32	Z32	X33	Y33	Z33	X34	Y34	Z34	X35	Y35	Z35	X36	Y36	Z36	X37	Y37	Z37	X38	Y38	Z38	X39	Y39	Z39	X40	Y40	Z40	X41	Y41	Z41	X42	Y42	Z42	X43	Y43	Z43	X44	Y44	Z44	X45	Y45	Z45	X46	Y46	Z46	X47	Y47	Z47	X48	Y48	Z48	X49	Y49	Z49	X50	Y50	Z50	
501	2.5050	556.640192	1200.209726	-236.912154	462.026073	1197.334262	-549.948197	499.829165	1236.377899	-410.597939	447.090105	1112.637198	-376.168184	532.477771	997.120373	-69.281985	700.007822	883.494941	-117.329955	468.576053	927.383406	-595.065406	680.893063	888.721692	-506.596088	-23.280417	1138.146540	-280.915049	105.826730	1133.669990	-423.332330	122.765953	1110.667186	-148.000164	144.652760	1096.915750	-400.540456	170.643123	1080.569913	-180.747404	7.342143	1166.379893	-237.363785	4.621713	1181.219206	-320.093751	89.200142	1019.859701	-119.988338	51.176060	1059.931647	-472.415417	177.518732	960.344219	-133.991033	246.729480	908.393299	-151.177791	288.021718	833.634612	-140.508044	266.522985	926.883401	-177.165105	334.804498	706.028867	-185.765467	302.538971	692.037864	-289.851219	287.120320	607.591707	-159.834919	252.614778	525.432579	-172.870458	191.218296	467.251874	-159.239034	261.374761	519.418591	-210.977108	108.132320	370.686731	-151.626127	125.398090	382.066935	-235.932100	263.694212	201.331209	-184.911427	162.483655	246.900779	-133.852576	192.692921	235.415417	-239.982387	180.530163	978.547533	-496.667470	262.289234	974.765054	-492.016990	280.441998	1002.740710	-476.400828	321.835536	908.351240	-495.551488	407.819256	848.088661	-476.658190	418.410287	821.362849	-374.431313	396.408480	743.987049	-496.778954	394.221738	658.996915	-479.872483	347.774612	581.244367	-481.682573	412.004108	657.441567	-443.257487	297.413725	482.712726	-467.062832	315.674179	481.494117	-388.730119	241.043177	412.522493	-428.762411	524.691749	460.823433	-444.045392	423.227977	417.684452	-502.525405	-162.374210	857.823730	-315.202664	37.227396	86.370048	-514.274898	33.911299	82.377438	-114.624315	
502	2.5100	557.635433	1198.679686	-237.378563	462.890813	1195.327631	-549.892616	500.880664	1234.445079	-411.080298	447.612151	1111.069116	-376.158490	532.602436	996.873161	-68.606789	699.972829	883.536378	-117.240974	468.262529	925.525402	-595.039207	680.659724	888.478658	-506.552499	-22.603221	1138.671575	-281.448247	106.827378	1133.321651	-423.543402	122.939920	1111.030167	-148.141503	145.493973	1096.533102	-400.531063	170.755008	1080.692468	-180.744272	7.944844	1167.024780	-237.849505	5.505943	1181.542339	-320.667194	89.357374	1020.515156	-119.871854	52.072418	1059.585774	-472.448458	177.962237	961.352548	-133.721404	247.465679	909.781905	-150.946917	289.221735	835.378911	-140.329274	267.041306	928.357388	-177.066979	336.588753	707.769728	-185.369936	304.383716	693.866485	-289.524275	287.964956	609.636710	-159.668692	252.802446	527.795872	-172.752092	190.740775	470.225968	-159.212307	261.495405	521.730403	-210.895823	106.774979	374.725627	-151.603820	123.895909	386.201429	-235.868186	261.393456	204.647593	-184.928682	160.354504	250.729445	-133.843681	190.394825	239.019339	-239.987060	180.743869	977.281408	-496.600922	262.630684	972.742526	-491.773736	281.009709	1000.604996	-476.127523	321.583343	905.812036	-495.030082	406.915671	845.067885	-475.964389	417.320541	818.334178	-373.643558	396.083124	740.916926	-496.143977	394.741987	655.797109	-479.361272	348.992292	577.657131	-481.299523	412.486083	654.399871	-442.757644	299.505958	478.675702	-466.886907	318.201944	477.193800	-388.253218	243.302097	408.317819	-428.838965	526.945841	456.914290	-443.827739	425.596543	413.798839	-502.495476	-162.395203	857.693109	-315.749943	37.239511	86.375806	-514.281591	33.905578	82.399168	-114.629505	
503	2.5150	558.650443	1197.349356	-237.953232	463.743060	1193.383396	-550.011040	501.857779	1232.616730	-411.427068	448.553780	1109.362520	-376.129796	532.851774	996.694338	-67.894808	700.000663	883.700159	-117.113220	468.020801	923.783568	-595.004004	680.432212	888.288096	-506.578079	-21.790697	1139.076178	-282.016061	107.788338	1133.119807	-423.953686	123.179205	1111.429931	-148.296954	146.385288	1096.353120	-400.784238	170.899583	1080.806730	-180.794637	8.639629	1167.634904	-238.330660	6.412764	1181.824993	-321.303540	89.578286	1021.108900	-119.697310	52.984485	1059.318826	-472.629669	178.409102	962.272384	-133.506707	248.171476	911.206661	-150.866023	290.404987	837.001901	-140.171411	267.648169	929.897813	-176.872714	338.479069	709.607796	-184.886109	306.305776	695.756127	-289.309398	289.176707	611.572005	-159.507369	253.169119	530.278060	-172.626853	190.423416	473.487042	-159.139180	261.716601	524.095578	-210.792604	105.382041	378.876035	-151.578668	122.861203	390.091296	-235.803871	259.069737	208.098284	-184.874030	158.340474	254.670821	-133.866807	188.726853	242.839349	-239.871726	180.962261	976.007804	-496.538079	262.949717	970.713418	-491.449122	281.530403	998.451200	-475.887249	321.313643	903.297417	-494.531194	406.307900	841.987633	-475.109782	416.325726	814.993998	-373.064954	395.701077	737.752287	-495.599352	395.154361	652.627483	-479.021708	350.098888	574.060932	-481.019665	412.993697	651.377170	-442.388521	301.569282	474.613155	-466.677657	319.846759	473.099611	-388.498567	245.674941	404.250459	-428.721468	529.191151	452.801438	-443.612073	427.943961	409.800321	-502.357462	-162.338170	857.662378	-316.067895	37.239654	86.365372	-514.276232	33.916294	82.399855	-114.627446	
504	2.5200	559.605357	1196.060194	-238.384111	464.702821	1191.456912	-550.042178	502.868442	1230.966533	-411.784535	449.331300	1107.908096	-376.156892	533.115104	996.572104	-67.233794	699.947142	883.524262	-117.051314	467.784528	922.089731	-594.977797	680.227847	888.142792	-506.638559	-21.240710	1139.646952	-282.453202	108.670883	1132.857721	-424.051006	123.366446	1111.739164	-148.496160	147.100960	1096.045590	-400.671529	171.054804	1080.936057	-180.851068	9.296529	1168.095014	-238.874677	7.240259	1182.142413	-321.916050	89.766522	1021.766958	-119.558573	53.841084	1058.997490	-472.792196	178.804989	963.355139	-133.362300	248.987558	912.648227	-150.588823	291.609198	838.561729	-140.065647	268.258442	931.376939	-176.826061	340.435099	711.471033	-184.438925	308.265455	697.688214	-288.940701	290.459337	613.622205	-159.318923	253.553831	532.705076	-172.579138	189.928054	476.615321	-159.255806	261.250479	525.859191	-211.648674	104.207416	383.085444	-151.555604	122.161018	393.935606	-235.856996	256.953758	211.709670	-184.881824	156.441100	258.649975	-133.844520	186.371348	246.570048	-240.059587	181.185063	974.727425	-496.479000	263.239250	968.699137	-491.135568	282.052093	996.273614	-475.650859	321.019339	900.737903	-493.997076	405.358356	839.009953	-474.437973	415.229720	811.817973	-372.398780	395.256621	734.638299	-495.118765	395.498735	649.448622	-478.666339	351.095885	570.398371	-480.894208	413.531434	648.365639	-442.015714	303.558676	470.553994	-466.420812	322.082978	469.109817	-388.296637	247.654901	400.310352	-428.844532	531.512592	448.433086	-443.442413	430.167319	405.821801	-502.329978	-162.364247	857.586237	-316.330028	37.240324	86.359008	-514.275695	33.907254	82.405447	-114.609895	
